PathFileType        4      (X/Y/Z)      C:\Users\pc\Desktop\IMUTRC\Sujet_06\Sujet_06_velo_100.trc         
DataRate	CameraRate	NumFrames	NumMarkers	Units	OrigDataRate	OrigDataStartFrame	OrigNumFrames
60.0	60.0	4	64	mm	60.0	1	933
Frame#	Time	pHipOrigin			pRightASI			pLeftASI			pRightCSI			pLeftCSI			pRightIschialTub			pLeftIschialTub			pSacrum			pL5SpinalProcess			pL3SpinalProcess			pT12SpinalProcess			pIJ			pT4SpinalProcess			pT8SpinalProcess			pPX			pC7SpinalProcess			pTopOfHead			pRightAuricularis			pLeftAuricularis			pBackOfHead			pRightAcromion			pLeftAcromion			pRightArmLatEpicondyle			pRightArmMedEpicondyle			pLeftArmLatEpicondyle			pLeftArmMedEpicondyle			pRightUlnarStyloid			pRightRadialStyloid			pRightOlecranon			pLeftUlnarStyloid			pLeftRadialStyloid			pLeftOlecranon			pRightTopOfHand			pRightPinky			pRightBallHand			pLeftTopOfHand			pLeftPinky			pLeftBallHand			pRightGreaterTrochanter			pRightKneeLatEpicondyle			pRightKneeMedEpicondyle			pRightPatella			pLeftGreaterTrochanter			pLeftKneeLatEpicondyle			pLeftKneeMedEpicondyle			pLeftPatella			pRightTibialTub			pRightLatMalleolus			pRightMedMalleolus			pLeftTibialTub			pLeftLatMalleolus			pLeftMedMalleolus			pRightHeelFoot			pRightFirstMetatarsal			pRightFifthMetatarsal			pRightPivotFoot			pRightHeelCenter			pRightToe			pLeftHeelFoot			pLeftFirstMetatarsal			pLeftFifthMetatarsal			pLeftPivotFoot			pLeftHeelCenter			pLeftToe			
		X1	Y1	Z1	X2	Y2	Z2	X3	Y3	Z3	X4	Y4	Z4	X5	Y5	Z5	X6	Y6	Z6	X7	Y7	Z7	X8	Y8	Z8	X9	Y9	Z9	X10	Y10	Z10	X11	Y11	Z11	X12	Y12	Z12	X13	Y13	Z13	X14	Y14	Z14	X15	Y15	Z15	X16	Y16	Z16	X17	Y17	Z17	X18	Y18	Z18	X19	Y19	Z19	X20	Y20	Z20	X21	Y21	Z21	X22	Y22	Z22	X23	Y23	Z23	X24	Y24	Z24	X25	Y25	Z25	X26	Y26	Z26	X27	Y27	Z27	X28	Y28	Z28	X29	Y29	Z29	X30	Y30	Z30	X31	Y31	Z31	X32	Y32	Z32	X33	Y33	Z33	X34	Y34	Z34	X35	Y35	Z35	X36	Y36	Z36	X37	Y37	Z37	X38	Y38	Z38	X39	Y39	Z39	X40	Y40	Z40	X41	Y41	Z41	X42	Y42	Z42	X43	Y43	Z43	X44	Y44	Z44	X45	Y45	Z45	X46	Y46	Z46	X47	Y47	Z47	X48	Y48	Z48	X49	Y49	Z49	X50	Y50	Z50	X51	Y51	Z51	X52	Y52	Z52	X53	Y53	Z53	X54	Y54	Z54	X55	Y55	Z55	X56	Y56	Z56	X57	Y57	Z57	X58	Y58	Z58	X59	Y59	Z59	X60	Y60	Z60	X61	Y61	Z61	X62	Y62	Z62	X63	Y63	Z63	X64	Y64	Z64	
1	0.0	0.0	1250.03612	7.654263665882883E-14	34.96783000000001	1328.64992	129.40650000000008	92.52436999999999	1332.60614	-93.80056999999992	7.019090000000013	1390.67316	104.64825000000009	55.642239999999994	1393.99127	-83.59097999999992	-63.299429999999994	1204.34822	33.05353000000008	-39.051660000000005	1206.00728	-61.002269999999925	-54.62128	1273.90102	-13.655319999999914	-17.86677	1362.21394	-2.5523999999999143	34.45735	1468.9041	10.464830000000086	84.48432	1565.38469	22.078230000000087	331.81153	1635.19273	78.23095000000006	207.12696	1719.42181	48.75077000000008	144.33801	1654.71856	35.223070000000085	249.75198	1543.30646	60.747030000000066	251.28342	1762.42968	59.21560000000008	528.21843	1807.35186	59.47084000000005	432.7588	1780.16884	138.72274000000004	422.80446	1779.65836	-5.615269999999942	412.85011	1834.79012	67.38326000000006	216.31559000000001	1743.15909	232.14045000000007	295.18464	1736.65048	-113.32639999999995	362.44028000000003	1485.6223	264.68350000000004	353.37928	1471.83936	203.93647000000004	443.73411	1490.34423	-155.31331999999998	414.63679	1462.26787	-106.81778999999997	549.40332	1307.97551	250.51770000000002	572.5025	1339.24237	215.80511000000004	343.93541000000005	1465.96885	253.96344000000005	644.48008	1336.30711	-149.31519	653.15823	1353.66341	-101.0749	423.0597	1470.69078	-157.09999999999997	721.81769	1284.23823	205.21267	649.84011	1273.64578	242.35003	585.13686	1297.63831	233.67189	808.72679	1354.04627	-73.63663000000001	750.78739	1333.49948	-127.4922	681.23459	1330.81946	-127.36458	6.3809900000000175	1235.99794	145.9970700000001	365.37554	1112.33433	140.76466	371.37367	1115.52483	67.25564000000003	379.2861	1153.93839	104.26539000000002	40.96595999999999	1224.00167	-143.44467999999992	218.22989	890.02061	-109.11493999999998	213.76319	888.61679	-35.47830999999997	250.77294	911.33312	-67.25563999999997	382.98707	1066.26358	104.13777000000003	95.45962000000002	830.67739	138.46750000000006	96.09772000000001	828.63548	79.37953000000005	263.15206	855.56326	-69.04231999999998	163.22574999999998	499.88683	-122.64263999999999	160.03525	496.82395	-63.809909999999995	14.421040000000012	788.43523	104.64825000000005	139.61608	686.467	104.01015000000002	128.64078000000003	700.37756	178.28489000000002	150.71900000000002	679.95839	145.10373	44.15646000000002	767.25034	112.94354000000004	208.65840000000003	633.6324	162.33241	98.65011999999999	432.37594	-94.31104999999998	246.17863	381.2004	-53.34508000000001	248.09292999999997	380.68992	-129.66173	267.49114	373.79845	-89.97197	134.63891	421.7835	-93.41770999999999	339.46872	348.65734	-88.05767000000002	
2	0.017	0.0	1250.03612	7.654263665882883E-14	35.605930000000015	1328.90516	129.1512600000001	91.12054999999998	1333.24424	-94.56628999999992	7.019090000000013	1390.67316	104.64825000000009	53.85555999999999	1394.37413	-83.97383999999991	-62.66132999999999	1203.96536	33.69163000000008	-39.306900000000006	1205.75204	-60.619409999999924	-54.87652	1273.51816	-13.144839999999915	-18.50487	1362.21394	-2.4247799999999144	33.56401	1469.03172	10.464830000000086	83.59098	1565.51231	22.078230000000087	331.30105	1634.68225	77.46523000000006	206.61649	1719.29419	48.62315000000008	143.69991	1654.84618	35.223070000000085	248.85864	1543.05122	59.981310000000065	251.02818	1762.17444	59.08798000000008	528.21843	1806.07566	59.34322000000005	432.50356	1779.14788	138.46750000000006	422.67684	1778.89264	-5.870509999999943	412.85011	1834.0244	67.25564000000006	215.80511000000004	1741.75527	232.3956900000001	294.41892	1736.65048	-113.45401999999994	361.03646000000003	1484.09086	265.32160000000005	352.61356	1470.56316	204.31933000000004	442.45791	1489.83375	-155.69617999999997	413.36059	1461.88501	-107.20064999999997	548.89284	1307.08217	249.75198000000003	571.73678	1338.47665	215.16701000000003	342.91445000000004	1464.43741	254.47392000000005	643.20388	1335.79663	-150.33615	651.88203	1353.28055	-102.09585	421.65588	1470.30792	-157.48285999999996	721.17959	1283.72775	204.70219	649.20201	1273.00768	241.83955	584.49877	1296.87259	233.03379	807.45059	1353.79103	-75.04045000000002	749.51119	1333.24424	-128.64078	679.95839	1330.30898	-128.38554	8.040050000000019	1234.72174	145.6142100000001	368.43841	1115.78007	133.61795	373.54321	1120.502	60.10893000000003	381.45564	1158.14985	97.75678000000003	39.944999999999986	1224.00167	-143.6999099999999	217.46417	890.14823	-109.75303999999997	213.38034	888.99965	-36.11640999999997	250.13484	911.58836	-68.14897999999997	388.21949	1071.36837	98.52250000000002	113.19878000000001	821.87163	136.93606000000005	114.34736000000001	818.42589	77.84809000000004	260.59967	853.52134	-70.19089999999997	140.63703999999998	503.97066	-123.66359999999999	137.70178	500.90779	-64.70324999999998	36.49927000000002	772.99324	104.26539000000004	169.73436	681.61745	105.66921000000004	157.48286000000002	696.03849	179.6887	181.22014000000001	676.89551	146.89041	67.89374000000001	754.36074	113.07116000000003	242.35003000000003	636.56765	164.8848	71.72233999999999	441.94743	-94.43866999999999	215.42225	380.43468	-53.855560000000004	216.69844999999998	379.41372	-130.29983	235.84142	371.24605	-90.61007	106.81778999999999	428.93021	-93.67294999999999	305.39422	341.38301	-88.82339000000003	
3	0.033	0.0	1250.03612	7.654263665882883E-14	36.244030000000016	1329.03278	128.89602000000008	89.58910999999999	1333.88234	-95.33199999999992	7.019090000000013	1390.67316	104.64825000000009	51.941269999999996	1394.75699	-84.48431999999991	-62.02322999999999	1203.45488	34.202110000000076	-39.56214000000001	1205.4968	-60.36416999999992	-55.25938	1273.1353	-12.634359999999914	-19.27059	1362.21394	-2.297159999999914	32.67067	1469.15934	10.592440000000087	82.82526	1565.76755	22.078230000000087	330.66295	1634.29939	76.82713000000005	206.23363	1719.29419	48.49553000000008	143.06182	1654.9738	35.095450000000085	247.96531	1542.79598	59.343220000000066	250.77294	1762.04683	58.96036000000008	528.09081	1804.79946	59.21560000000005	432.24832	1778.12692	138.21226000000004	422.4216	1778.25454	-6.125749999999942	412.85011	1833.13106	67.00040000000006	215.16701000000003	1740.35146	232.5233100000001	293.6532	1736.52286	-113.70925999999994	359.50503000000003	1482.4318	265.95970000000005	351.84784	1469.15934	204.82981000000004	441.18171	1489.45089	-156.07903999999996	411.95677	1461.50215	-107.71112999999997	548.25474	1306.06122	248.98626000000002	570.97107	1337.71093	214.52891000000002	341.76587000000006	1462.77835	254.98440000000005	641.80006	1335.41377	-151.22948	650.73345	1352.89769	-103.11681	420.25206	1469.92506	-157.86570999999998	720.66911	1283.21727	204.06409	648.69153	1272.36958	241.20146	583.86067	1296.10687	232.39569	806.30201	1353.66341	-76.31665000000001	748.23499	1332.989	-129.78935	678.68219	1329.92612	-129.4065	9.826730000000017	1233.57316	145.23135000000008	371.37367	1119.2258	126.47124000000002	375.58512	1125.47917	53.08984000000003	383.36993	1162.61654	91.24817000000003	38.79641999999998	1224.12929	-143.95514999999992	216.69845	890.40347	-110.39113999999996	213.1251	889.25489	-36.626889999999975	249.62436	911.8436	-69.04231999999998	393.4519	1076.60078	92.90723000000003	131.57603000000003	814.08682	135.78749000000002	133.36271	809.36488	76.82713000000003	257.79203	851.47942	-71.33947999999997	118.30356999999998	509.33069	-124.42931999999999	115.75116999999999	506.26782	-65.46896999999998	59.215600000000016	757.80648	104.01015000000002	199.46978	677.78885	107.32827000000002	185.94207000000003	692.59275	180.9649	211.21080000000003	674.72598	148.54947	92.01389000000002	741.98162	113.19878000000003	275.53119	639.75815	167.30958	45.04979999999998	451.90178	-94.56628999999997	184.1554	380.30706	-54.36604	185.04873999999998	378.77562	-130.68269	203.68123	369.45937	-91.12055	79.12428999999999	436.33216	-93.92818999999999	271.06449	334.36392	-89.58911000000002	
4	0.05	0.0	1250.03612	7.654263665882883E-14	36.62689000000002	1329.1604	128.6407800000001	88.44052999999998	1334.52044	-95.84247999999992	6.763850000000012	1390.67316	104.64825000000009	50.53744999999999	1395.13985	-84.61193999999992	-61.51274999999999	1203.07202	34.58497000000008	-39.68976000000001	1205.36918	-60.10892999999992	-55.387	1272.75244	-12.251499999999915	-19.90869	1362.21394	-2.0419199999999145	31.90495	1469.28696	10.592440000000087	82.05954	1566.02278	22.078230000000087	330.15247	1633.78891	76.44427000000006	205.85077	1719.16657	48.49553000000008	142.42372	1655.10142	35.095450000000085	247.19959	1542.66836	58.960360000000065	250.5177	1761.79159	58.96036000000008	527.96319	1803.77851	58.96036000000005	432.1207	1777.3612	137.95702000000006	422.29398	1777.61644	-6.380989999999942	412.85011	1832.49296	66.87278000000006	214.65653000000003	1739.45812	232.77855000000008	293.0151	1736.52286	-113.70925999999994	358.61169000000007	1481.41085	266.34256000000005	351.33736	1468.52124	205.08505000000002	440.41599	1489.19565	-156.20665999999997	411.19105	1461.24691	-107.96636999999997	547.87188	1305.55074	248.47579000000002	570.46059	1337.45569	214.01843000000002	341.12777000000006	1461.75739	255.23964000000007	640.90673	1335.15853	-151.9952	649.96773	1352.64245	-103.88253	419.35872	1469.5422	-158.12094999999997	720.28625	1282.96203	203.68123	648.30867	1271.98672	240.69098	583.47781	1295.72401	232.01283	805.66391	1353.53579	-77.33761000000001	747.46927	1332.86138	-130.81031	677.91647	1329.7985	-130.29983	10.847680000000018	1232.16934	144.84849000000008	372.64987	1119.48104	121.23883000000002	376.22322	1127.13823	47.98505000000003	384.26327	1163.50988	86.78148000000003	38.66879999999998	1224.76739	-144.2103899999999	220.14419	892.82825	-111.66733999999997	216.44321	891.42443	-38.03070999999997	252.81486	914.52361	-70.19089999999997	397.40811	1078.77032	88.69577000000002	150.33615000000003	802.72865	135.78749000000002	152.6333	797.11338	76.95475000000003	258.55775	851.9899	-72.99853999999998	98.65011999999999	518.64694	-124.68455999999999	96.48057999999999	515.71168	-65.72420999999999	82.44240000000002	740.32256	104.52063000000003	228.31185	671.15262	108.47685000000001	213.76319000000004	685.70128	181.98586	240.30812000000003	669.62118	149.69805	116.26165000000002	727.17772	113.70926000000003	307.43614	639.37529	168.96864	21.69536999999999	466.57805	-93.92818999999997	155.31332	385.02899	-54.23842	155.31331999999998	382.85945	-130.55507	173.69057	372.39463	-90.99292999999999	54.493659999999984	448.45604	-93.29008999999998	238.2662	332.19439	-89.84435000000002	
